<?xml version="1.0" encoding="UTF-8" standalone="no"?>
<svg
   version="1.0"
   width="283.82159pt"
   height="383.58539pt"
   viewBox="0 0 283.82159 383.58539"
   preserveAspectRatio="xMidYMid"
   id="svg47"
   xmlns="http://www.w3.org/2000/svg"
   xmlns:svg="http://www.w3.org/2000/svg">
  <defs
     id="defs47" />
  <metadata
     id="metadata1">
Created by potrace 1.10, written by Peter Selinger 2001-2011
</metadata>
  <g
     transform="matrix(0.1,0,0,-0.1,-503.00003,700.58542)"
     fill="#000000"
     stroke="none"
     id="g47">
    <path
       d="m 6325,7000 c -124,-26 -227,-73 -320,-146 -91,-72 -154,-145 -209,-244 -40,-72 -46,-85 -46,-100 0,-9 -4,-20 -9,-25 -14,-16 -34,-134 -38,-230 -4,-88 19,-247 39,-270 4,-5 8,-15 8,-23 0,-7 10,-34 21,-60 69,-153 217,-306 364,-376 22,-10 48,-23 58,-28 10,-5 37,-13 60,-18 23,-5 60,-13 82,-19 22,-6 72,-11 110,-11 39,0 88,5 110,11 22,6 59,14 82,19 23,5 50,13 60,18 10,5 45,22 78,38 136,66 267,202 333,344 41,91 52,118 52,134 0,8 7,41 15,73 35,133 7,340 -67,493 -44,91 -85,148 -159,221 -48,48 -194,149 -215,149 -6,0 -25,7 -40,15 -16,8 -38,15 -49,15 -12,0 -26,5 -31,10 -14,14 -237,22 -289,10 z"
       id="path2"
       style="fill:#808080" />
    <path
       d="m 10470,7004 c -72,-13 -166,-46 -238,-82 -61,-31 -176,-127 -225,-187 -51,-63 -58,-74 -96,-152 -13,-26 -27,-56 -32,-65 -5,-10 -14,-37 -20,-60 -38,-149 -38,-296 1,-448 13,-52 98,-230 111,-230 4,0 10,-8 13,-17 16,-51 175,-188 265,-229 31,-15 65,-31 76,-37 11,-6 38,-14 60,-18 22,-4 58,-12 80,-18 51,-13 159,-14 210,0 22,6 56,14 75,19 148,36 329,162 409,285 14,22 29,42 32,45 11,9 59,116 80,181 58,174 35,460 -50,614 -22,42 -125,176 -153,201 -46,40 -144,110 -178,126 -74,35 -109,48 -127,48 -10,0 -24,5 -29,10 -11,11 -221,22 -264,14 z"
       id="path3"
       style="fill:#808080" />
    <path
       d="m 2140.8449,6979.5757 c -124,-26 -227,-73 -320,-146 -91,-72 -154,-145 -209,-244 -40,-72 -46,-85 -46,-100 0,-9 -4,-20 -9,-25 -14,-16 -34,-134 -38,-230 -4,-88 19,-247 39,-270 4,-5 8,-15 8,-23 0,-7 10,-34 21,-60 69,-153 217,-306 364,-376 22,-10 48,-23 58,-28 10,-5 37,-13 60,-18 23,-5 60,-13 82,-19 22,-6 72,-11 110,-11 39,0 88,5 110,11 22,6 59,14 82,19 23,5 50,13 60,18 10,5 45,22 78,38 136,66 267,202 333,344 41,91 52,118 52,134 0,8 7,41 15,73 35,133 7,340 -67,493 -44,91 -85,148 -159,221 -48,48 -194,149 -215,149 -6,0 -25,7 -40,15 -16,8 -38,15 -49,15 -12,0 -26,5 -31,10 -14,14 -237,22 -289,10 z"
       id="path2-1"
       style="fill:#808080" />
    <path
       d="m 5834,5240 c -39,-4 -80,-13 -92,-19 -11,-6 -31,-11 -44,-11 -13,0 -36,-7 -52,-15 -15,-8 -34,-15 -41,-15 -6,0 -32,-11 -56,-25 -24,-14 -51,-28 -59,-32 -51,-23 -180,-136 -233,-203 -97,-123 -148,-231 -177,-380 -15,-77 -49,-820 -50,-1088 0,-177 8,-206 73,-253 l 40,-29 h 285 284 l -8,28 c -4,15 -9,284 -11,597 -4,650 -4,650 72,729 59,61 113,83 223,92 67,5 95,11 99,21 3,8 -9,71 -26,141 -52,207 -62,245 -71,290 -5,23 -14,51 -20,61 -5,11 16.5433,-73.1733 16.5433,-56.1733 0,29 -56.5433,179.1733 -73.5433,176.1733 -5,-1 -40,-5 -79,-9 z"
       id="path5"
       style="fill:#808080" />
    <path
       d="m 6950,5235 c -10,-12 -28,-82 -52,-200 -6,-27 -14,-58 -20,-69 -5,-10 -14,-39 -18,-65 -9,-42 -22,-99 -49,-206 -18,-68 -13,-72 102,-80 149,-10 209,-47 263,-160 18,-37 19,-67 19,-415 0,-206 -2,-485 -4,-620 l -3,-245 280,-3 280,-2 43,33 c 31,23 49,48 63,82 17,47 18,62 7,235 -6,102 -11,235 -11,295 0,61 -4,178 -10,260 -5,83 -14,222 -20,310 -13,217 -53,345 -153,493 -75,110 -225,236 -337,282 -30,12 -63,26 -73,31 -10,5 -37,14 -60,19 -23,5 -60,13 -82,18 -75,18 -153,21 -165,7 z"
       id="path6"
       style="fill:#808080" />
    <path
       d="m 9943,5239 c -45,-4 -91,-12 -102,-18 -11,-6 -29,-11 -40,-11 -45,0 -218,-87 -298,-151 -35,-27 -90,-82 -123,-122 -61,-74 -150,-236 -150,-272 0,-12 -4,-25 -9,-30 -17,-18 -32,-137 -41,-330 -5,-104 -14,-271 -20,-370 -6,-99 -13,-281 -16,-405 -7,-257 -4,-266 75,-328 l 43,-32 h 148 c 112,0 150,3 159,14 7,8 15,108 21,270 5,141 12,260 15,265 5,8 28,533 28,626 -1,22 -4,126 -8,230 -7,171 -6,194 10,225 28,56 55,81 75,70 23,-12 56,-68 62,-106 3,-16 19,-82 36,-147 22,-84 38,-125 53,-138 21,-18 47,-19 708,-19 568,1 689,3 704,14 19,15 43,80 56,156 22,123 52,202 86,232 19,17 21,17 58,-23 l 37,-42 v -341 c 0,-201 6,-425 15,-546 8,-113 19,-293 26,-400 6,-107 14,-226 18,-265 l 6,-70 148,-3 c 136,-2 152,-1 183,18 75,47 110,138 94,247 -5,37 -10,142 -10,233 0,91 -5,226 -10,300 -5,74 -14,223 -19,330 -9,183 -32,343 -52,365 -5,5 -9,16 -9,24 0,19 -57,136 -91,186 -94,138 -276,272 -434,319 -33,10 -75,22 -92,28 -41,12 -204,29 -215,22 -4,-3 -8,-13 -8,-22 0,-29 -39,-123 -71,-168 -31,-45 -94,-101 -144,-126 -94,-49 -115,-53 -265,-53 -150,0 -173,4 -278,52 -94,41 -186,152 -208,248 -9,43 -32,75 -52,74 -9,-1 -54,-5 -99,-10 z"
       id="path7"
       style="fill:#808080" />
    <path
       d="m 6289,5183 c -17,-45 -2,-113 33,-149 l 30,-32 -17,-73 c -9,-41 -23,-100 -31,-132 -24,-90 -27,-88 143,-85 l 148,3 -4,55 c -2,30 -9,73 -16,95 -7,22 -16,66 -20,98 -5,47 -4,58 10,63 20,8 55,85 55,123 0,55 -16,61 -176,61 h -144 z"
       id="path8"
       style="fill:#808080" />
    <path
       d="m 1655,5301 c -22,-8 -74,-24 -115,-36 -41,-12 -79,-26 -85,-31 -5,-5 -18,-9 -28,-9 -10,0 -31,-6 -45,-14 -15,-7 -58,-28 -97,-47 -127,-61 -193,-113 -270,-214 -67,-89 -109,-178 -134,-291 -25,-110 -51,-926 -51,-1170 1,-163 2,-177 24,-214 12,-22 42,-55 65,-72 l 43,-33 h 1298 1298 l 43,33 c 24,18 54,54 68,82 31,58 31,524 13,955 -12,268 -26,389 -58,495 -58,189 -219,364 -404,440 -30,12 -68,28 -85,35 -54,24 -109,43 -170,60 -33,9 -70,21 -83,26 -13,5 -38,9 -57,9 -30,0 -36,-4 -41,-27 -3,-16 -12,-42 -20,-60 -8,-17 -14,-37 -14,-45 0,-7 -7,-22 -15,-32 -8,-11 -15,-30 -15,-42 0,-13 -4,-25 -9,-29 -5,-3 -12,-19 -16,-36 -4,-17 -13,-42 -21,-57 -8,-15 -14,-35 -14,-44 0,-9 -4,-19 -9,-23 -5,-3 -12,-19 -16,-36 -4,-17 -13,-42 -21,-57 -8,-15 -14,-34 -14,-43 0,-8 -4,-19 -9,-25 -5,-5 -14,-25 -19,-44 -6,-19 -20,-60 -32,-90 -12,-30 -24,-67 -27,-82 -6,-31 -51,-67 -57,-46 -3,7 -7,41 -10,76 -3,35 -10,71 -16,82 -5,10 -10,33 -10,50 0,17 -6,59 -14,93 -8,34 -19,90 -26,125 -6,35 -13,68 -16,75 -2,7 7,24 21,40 41,43 59,104 44,149 -17,53 -50,71 -123,70 -161,-1 -156,0 -187,-31 -23,-23 -29,-38 -29,-72 0,-42 30,-106 58,-123 11,-6 13,-22 7,-74 -4,-36 -11,-77 -16,-91 -6,-13 -14,-49 -19,-80 -21,-124 -61,-295 -72,-306 -11,-12 -34,39 -93,210 -13,39 -42,117 -64,175 -23,58 -41,109 -41,113 0,5 -6,23 -14,40 -7,18 -21,52 -31,77 -9,25 -23,60 -31,78 -8,18 -14,37 -14,43 0,6 -6,25 -14,42 -8,18 -16,40 -20,50 -6,20 -17,21 -71,3 z m 1707.3457,-814.1075 c -0.1681,-11.1035 -15.6961,-17.9544 -46.5657,-20.5527 -16.3546,-1.1942 -121.9288,-2.4079 -193.4152,-1.986 -23.7984,0 -84.4419,-0.098 -196.1724,-0.4808 -123.0328,-0.3827 -53.2362,49.0895 -19.5252,49.1092 33.7109,0 94.5534,0.1079 164.6556,0.4415 225.7642,1.0911 234.1202,0.9714 265.0024,-8.2697 21.8748,-6.5428 26.8401,-9.7171 26.0205,-18.2615 z m -84.0428,107.1882 c -0.047,-13.0364 -19.6884,-64.5902 -28.2082,-67.6406 -4.5135,-1.4019 -126.6425,3.1446 -146.3722,3.6401 -6.568,0 -92.409,-0.9705 -123.2454,-1.4167 -33.9558,-0.4462 -45.4054,98.5874 -36.1015,98.6109 9.3036,0 134.4437,-70.681 153.7912,-70.2936 62.3085,1.281 171.2565,99.2494 179.7799,88.4004 6.037,-7.6823 0.5825,-41.2687 0.3562,-51.3005 z"
       id="path9"
       style="fill:#808080" />
    <path
       d="m 5926,4466 c -21,-7 -49,-25 -62,-40 l -24,-27 v -582 -582 l 31,-32 30,-33 h 543 543 l 25,23 c 14,12 29,36 32,52 3,17 7,280 8,585 2,614 3,600 -62,632 -32,15 -83,17 -530,16 -356,0 -506,-3 -534,-12 z m 416.5732,-176.023 c 13.2757,-15.6464 15.6464,-31.7669 7.112,-48.3616 -4.7414,-8.5344 -43.1462,-54.5254 -70.6459,-83.9216 -9.0086,-9.9568 -31.767,-35.5601 -73.4907,-82.9734 -45.991,-52.1547 -45.991,-52.6288 -58.7926,-59.2667 -19.9136,-10.4309 -41.2496,-1.8965 -74.9131,29.8704 -75.3872,70.6459 -86.2923,82.4992 -89.1371,94.8267 -7.5861,30.3446 10.431,55.4736 39.8272,55.4736 19.4395,0 32.7153,-9.4826 83.4475,-57.8442 l 18.9654,-18.0171 c 0,0 1.519,1.4769 14.224,15.6464 12.705,14.1695 35.5741,39.8149 61.6373,69.6976 83.9358,96.2368 87.2406,99.568 109.999,99.568 16.1206,0 21.8102,-2.3706 31.767,-14.6981 z m 8.9093,-357.8043 c 13.5022,-16.1587 15.9138,-32.806 7.2337,-49.9437 -4.8231,-8.8131 -43.8855,-56.3083 -71.8552,-86.6668 -9.1632,-10.2816 -32.3108,-36.7231 -74.749,-85.6868 -46.7782,-53.8608 -46.7782,-54.3503 -59.7994,-61.2054 -20.2538,-10.7722 -41.9551,-1.958 -76.1953,30.848 -76.6774,72.9566 -87.7691,85.1972 -90.6628,97.9274 -7.7158,31.3375 10.6096,57.2884 40.5088,57.2884 19.7727,0 33.276,-9.7932 84.8764,-59.7359 l 19.2896,-18.6063 14.4675,16.1578 c 8.1989,8.3236 36.1687,41.1296 62.693,71.9775 85.3575,99.397 88.7334,102.8246 111.8819,102.8246 16.396,0 22.1834,-2.4486 32.3108,-15.1788 z m -13.9954,-341.7386 c 13.145,-16.7912 15.492,-34.0896 7.0422,-51.8982 -4.6951,-9.1578 -42.7213,-58.5112 -69.9496,-90.0581 -8.92,-10.6833 -31.4542,-38.1599 -72.7668,-89.0398 -45.5376,-55.9674 -45.5376,-56.4766 -58.2133,-63.5998 -19.7169,-11.1935 -40.8424,-2.0346 -74.1754,32.055 -74.6437,75.8117 -85.4416,88.5306 -88.2579,101.7587 -7.5114,32.5642 10.3277,59.5306 39.4338,59.5306 19.2487,0 32.3936,-10.1761 82.6263,-62.0733 l 18.7775,-19.334 14.0843,16.7892 c 7.9816,8.6497 35.2099,42.7393 61.0306,74.7943 83.0935,103.2862 86.38,106.8484 108.9151,106.8484 15.9612,0 21.5948,-2.5449 31.4532,-15.773 z m 524.8829,633.7625 c -0.1231,-11.3161 -11.2029,-18.2982 -33.2358,-20.9463 -11.6729,-1.2166 -87.026,-2.454 -138.0491,-2.0237 -16.9863,0.019 -60.2698,-0.1 -140.0171,-0.4936 -87.8143,-0.3946 -37.9972,50.0289 -13.9358,50.0493 24.0605,0.02 67.4872,0.1091 117.5217,0.454 161.138,1.1116 167.1026,0.9847 189.1439,-8.4284 15.6134,-6.6678 19.1569,-9.9032 18.5722,-18.6113 z M 6842.1037,4105.82 c -0.1135,-11.3049 -10.5958,-18.2801 -31.4345,-20.9255 -11.0394,-1.2158 -82.3089,-2.4516 -130.5663,-2.0221 -16.0653,0 -57.0023,-0.1 -132.4277,-0.4895 -83.0542,-0.3896 -35.9374,49.9802 -13.1806,50.0002 22.7568,0 63.8299,0.1099 111.1519,0.4496 152.4038,1.1109 158.0455,0.989 178.8918,-8.4198 14.7668,-6.6615 18.1187,-9.8933 17.5654,-18.5929 z m 87.5063,-244.197 c 0,9.0669 -13.7799,-14.6013 -40.881,-16.7151 -14.358,-0.9704 -107.0439,-1.9583 -169.8033,-1.6143 -20.8931,0 -74.1334,-0.08 -172.2239,-0.391 -108.0131,-0.3191 -46.7372,39.9217 -17.1416,39.9376 29.5956,0 83.0105,0.087 144.5547,0.3591 198.2032,0.8873 205.539,0.7899 232.6512,-6.7253 19.2043,-5.3208 22.8439,-22.8683 22.8439,-14.8518 z m -106.9494,-92.7242 c -0.1057,-8.886 -10.1835,-14.3685 -30.2113,-16.4475 -10.6093,-0.9558 -79.105,-1.9273 -125.4835,-1.5893 -15.4396,0 -54.7831,-0.079 -127.273,-0.3852 -79.821,-0.3065 -34.5381,39.2855 -12.6669,39.3012 21.8701,0 61.3443,0.087 106.8242,0.3537 146.4714,0.8733 151.8938,0.7782 171.9283,-6.6183 14.1922,-5.2365 17.4137,-7.7761 16.8822,-14.6146 z m -340.0638,-348.9859 c 0,-8.0917 12.4838,13.0739 37.0358,14.9667 13.0077,0.8688 96.9758,1.7534 153.8322,1.4454 18.9292,0 67.1608,0.072 156.0252,0.3502 97.8549,0.2786 42.3423,-35.7459 15.5294,-35.7602 -26.8108,0 -75.2029,-0.078 -130.9573,-0.3214 -179.5609,-0.7946 -186.2079,-0.7074 -210.7689,6.0218 -17.3991,4.7642 -20.6964,19.7149 -20.6964,13.2983 z m 22.5841,84.5804 c 0.1231,8.0775 11.8074,13.0611 35.0278,14.9509 12.3023,0.8689 91.7195,1.752 145.4948,1.4448 17.9018,0 63.5191,0.072 147.5675,0.3501 92.5495,0.2787 40.0468,-35.7108 14.6879,-35.725 -25.3588,0 -71.1277,-0.078 -123.8599,-0.3216 -169.8285,-0.7937 -176.1155,-0.7074 -199.3448,6.0161 -16.4555,4.76 -20.1906,7.0686 -19.5733,13.2847 z"
       id="path10"
       style="fill:#808080" />
    <path
       d="m 10648.898,4290.9505 c -65,-35 -123,-96 -153,-160 -16,-35 -21,-65 -21,-142 l -1,-96 -111,-119 c -61,-65 -133,-141 -160,-169 -178,-185 -200,-211 -214.0001,-252 -11,-36 -12,-52 -1,-90 23.0001,-87 95.0001,-131 189.0001,-117 38,6 54,17 116,78 89,90 344,361 381,405 26,32 28,32 115,32 103,0 152,18 223,80 58,51 96,125 103,199 6,66 -6,143 -24,149 -7,2 -50,-35 -95,-82 -52,-54 -90,-86 -103,-86 -23,0 -174,149 -174,171 0,8 26,41 58,74 77,81 115,132 107,145 -3,6 -43,10 -93,10 -77,0 -93,-4 -142,-30 z"
       id="path11"
       style="fill:#808080" />
  </g>
</svg>
